<svg width="69" height="16" viewBox="0 0 69 16" fill="none" xmlns="http://www.w3.org/2000/svg">
<path d="M2.92 15.5398C2.50667 15.5398 2.11333 15.4332 1.74 15.2198C1.36667 14.9932 1.06667 14.6465 0.84 14.1798C0.613333 13.7132 0.5 13.1132 0.5 12.3798C0.5 11.4732 0.673333 10.6198 1.02 9.81982C1.36667 9.01982 1.82 8.31316 2.38 7.69982C2.94 7.08649 3.55333 6.60649 4.22 6.25982C4.9 5.89982 5.56667 5.71982 6.22 5.71982C6.47333 5.71982 6.76 5.75982 7.08 5.83982C7.4 5.90649 7.73333 6.02649 8.08 6.19982C8.36 6.15982 8.64667 6.11982 8.94 6.07982C9.24667 6.03982 9.56 5.99316 9.88 5.93982L9.94 6.01982C9.78 6.57982 9.64 7.11316 9.52 7.61982C9.4 8.11316 9.28 8.61982 9.16 9.13982L8.24 13.0998C8.22667 13.1932 8.2 13.3132 8.16 13.4598C8.12 13.6065 8.1 13.7465 8.1 13.8798C8.1 13.9998 8.12667 14.0998 8.18 14.1798C8.23333 14.2598 8.32667 14.2998 8.46 14.2998C8.68667 14.2998 8.97333 14.1798 9.32 13.9398C9.66667 13.6998 9.98 13.4065 10.26 13.0598C10.4333 13.1798 10.5867 13.3132 10.72 13.4598C10.2667 14.0598 9.78 14.5598 9.26 14.9598C8.74 15.3598 8.15333 15.5598 7.5 15.5598C7.00667 15.5598 6.65333 15.4398 6.44 15.1998C6.22667 14.9465 6.12 14.6332 6.12 14.2598C6.12 13.8998 6.19333 13.4865 6.34 13.0198H6.24C5.74667 13.8732 5.21333 14.5065 4.64 14.9198C4.08 15.3332 3.50667 15.5398 2.92 15.5398ZM7.56 7.45982C7.28 7.20649 6.98667 7.00649 6.68 6.85982C6.37333 6.69982 6.06 6.61982 5.74 6.61982C5.24667 6.61982 4.80667 6.79982 4.42 7.15982C4.03333 7.51982 3.70667 7.98649 3.44 8.55982C3.17333 9.11982 2.97333 9.72649 2.84 10.3798C2.70667 11.0198 2.64 11.6332 2.64 12.2198C2.64 13.0198 2.74667 13.5665 2.96 13.8598C3.17333 14.1398 3.42667 14.2798 3.72 14.2798C4.06667 14.2798 4.44667 14.1132 4.86 13.7798C5.28667 13.4332 5.7 12.8865 6.1 12.1398C6.51333 11.3798 6.86667 10.3798 7.16 9.13982L7.56 7.45982ZM20.9795 15.3798C20.7395 15.3798 20.4262 15.3732 20.0395 15.3598C19.6662 15.3465 19.2795 15.3332 18.8795 15.3198C18.4795 15.3065 18.1129 15.2998 17.7795 15.2998C17.5395 15.2998 17.2262 15.3065 16.8395 15.3198C16.4529 15.3198 16.0662 15.3198 15.6795 15.3198C15.3062 15.3332 15.0062 15.3398 14.7795 15.3398C14.7795 15.2465 14.7862 15.1398 14.7995 15.0198C14.8129 14.8998 14.8395 14.7932 14.8795 14.6998C15.4529 14.6332 15.8662 14.5732 16.1195 14.5198C16.3862 14.4665 16.5729 14.3465 16.6795 14.1598C16.7862 13.9598 16.8795 13.6332 16.9595 13.1798L18.7995 3.69982C18.8529 3.44649 18.8929 3.23982 18.9195 3.07982C18.9462 2.91982 18.9595 2.77982 18.9595 2.65982C18.9595 2.35316 18.8395 2.17316 18.5995 2.11982C18.3729 2.05316 17.9129 1.99316 17.2195 1.93982C17.2462 1.72649 17.2862 1.51316 17.3395 1.29982C17.5929 1.29982 17.8995 1.30649 18.2595 1.31982C18.6195 1.31982 18.9795 1.32649 19.3395 1.33982C19.6995 1.33982 19.9995 1.33982 20.2395 1.33982C20.4129 1.33982 20.6662 1.33982 20.9995 1.33982C21.3462 1.32649 21.6795 1.31982 21.9995 1.31982C22.3195 1.31982 22.5462 1.31982 22.6795 1.31982C23.2262 1.31982 23.7595 1.36649 24.2795 1.45982C24.8129 1.55316 25.2862 1.71316 25.6995 1.93982C26.1262 2.15316 26.4662 2.45982 26.7195 2.85982C26.9729 3.24649 27.0995 3.74649 27.0995 4.35982C27.0995 5.11982 26.9129 5.74649 26.5395 6.23982C26.1662 6.71982 25.6929 7.09982 25.1195 7.37982C24.5462 7.64649 23.9529 7.85316 23.3395 7.99982V8.03982C23.8729 8.10649 24.3862 8.25982 24.8795 8.49982C25.3862 8.73982 25.7995 9.09316 26.1195 9.55982C26.4529 10.0265 26.6195 10.6398 26.6195 11.3998C26.6195 12.1732 26.4462 12.8198 26.0995 13.3398C25.7529 13.8465 25.2995 14.2532 24.7395 14.5598C24.1795 14.8532 23.5662 15.0665 22.8995 15.1998C22.2462 15.3198 21.6062 15.3798 20.9795 15.3798ZM20.0595 8.55982L18.9395 14.3798C19.2462 14.4465 19.5929 14.4998 19.9795 14.5398C20.3662 14.5665 20.6862 14.5798 20.9395 14.5798C21.9929 14.5798 22.8062 14.2865 23.3795 13.6998C23.9662 13.0998 24.2595 12.2932 24.2595 11.2798C24.2595 10.5732 24.1195 10.0198 23.8395 9.61982C23.5729 9.21982 23.1929 8.93982 22.6995 8.77982C22.2195 8.60649 21.6595 8.51982 21.0195 8.51982C20.9262 8.51982 20.7862 8.51982 20.5995 8.51982C20.4129 8.51982 20.2329 8.53316 20.0595 8.55982ZM21.2995 2.15982L20.2195 7.69982C20.4062 7.71316 20.5995 7.71982 20.7995 7.71982C20.9995 7.71982 21.1529 7.71982 21.2595 7.71982C22.4195 7.71982 23.3062 7.42649 23.9195 6.83982C24.5329 6.25316 24.8395 5.47982 24.8395 4.51982C24.8395 3.61316 24.5929 2.99316 24.0995 2.65982C23.6062 2.31316 22.9995 2.13982 22.2795 2.13982C22.1862 2.13982 22.0529 2.13982 21.8795 2.13982C21.7062 2.13982 21.5129 2.14649 21.2995 2.15982ZM37.4353 9.63982C37.4353 10.3198 37.322 11.0065 37.0953 11.6998C36.882 12.3932 36.5553 13.0332 36.1153 13.6198C35.6753 14.1932 35.1286 14.6598 34.4753 15.0198C33.822 15.3798 33.0686 15.5598 32.2153 15.5598C31.4953 15.5598 30.8886 15.4332 30.3953 15.1798C29.9153 14.9265 29.5286 14.5998 29.2353 14.1998C28.942 13.7998 28.7286 13.3665 28.5953 12.8998C28.4753 12.4198 28.4153 11.9598 28.4153 11.5198C28.4153 10.9465 28.5153 10.3265 28.7153 9.65982C28.9286 8.99316 29.2486 8.35982 29.6753 7.75982C30.102 7.15982 30.6486 6.67316 31.3153 6.29982C31.982 5.91316 32.7753 5.71982 33.6953 5.71982C34.562 5.71982 35.2686 5.89982 35.8153 6.25982C36.3753 6.60649 36.782 7.07982 37.0353 7.67982C37.302 8.26649 37.4353 8.91982 37.4353 9.63982ZM35.3153 9.31982C35.3153 8.49316 35.182 7.81316 34.9153 7.27982C34.662 6.73316 34.2286 6.45982 33.6153 6.45982C33.1353 6.45982 32.702 6.61982 32.3153 6.93982C31.942 7.25982 31.622 7.68649 31.3553 8.21982C31.0886 8.75316 30.882 9.33982 30.7353 9.97982C30.602 10.6065 30.5353 11.2398 30.5353 11.8798C30.5353 12.7065 30.6686 13.4065 30.9353 13.9798C31.2153 14.5398 31.6686 14.8198 32.2953 14.8198C32.7886 14.8198 33.222 14.6532 33.5953 14.3198C33.9686 13.9865 34.282 13.5465 34.5353 12.9998C34.7886 12.4532 34.982 11.8598 35.1153 11.2198C35.2486 10.5665 35.3153 9.93316 35.3153 9.31982ZM41.1622 15.5398C40.7489 15.5398 40.3555 15.4332 39.9822 15.2198C39.6089 14.9932 39.3089 14.6465 39.0822 14.1798C38.8555 13.7132 38.7422 13.1132 38.7422 12.3798C38.7422 11.4732 38.9155 10.6198 39.2622 9.81982C39.6089 9.01982 40.0622 8.31316 40.6222 7.69982C41.1822 7.08649 41.7955 6.60649 42.4622 6.25982C43.1422 5.89982 43.8089 5.71982 44.4622 5.71982C44.7155 5.71982 45.0022 5.75982 45.3222 5.83982C45.6422 5.90649 45.9755 6.02649 46.3222 6.19982C46.6022 6.15982 46.8889 6.11982 47.1822 6.07982C47.4889 6.03982 47.8022 5.99316 48.1222 5.93982L48.1822 6.01982C48.0222 6.57982 47.8822 7.11316 47.7622 7.61982C47.6422 8.11316 47.5222 8.61982 47.4022 9.13982L46.4822 13.0998C46.4689 13.1932 46.4422 13.3132 46.4022 13.4598C46.3622 13.6065 46.3422 13.7465 46.3422 13.8798C46.3422 13.9998 46.3689 14.0998 46.4222 14.1798C46.4755 14.2598 46.5689 14.2998 46.7022 14.2998C46.9289 14.2998 47.2155 14.1798 47.5622 13.9398C47.9089 13.6998 48.2222 13.4065 48.5022 13.0598C48.6755 13.1798 48.8289 13.3132 48.9622 13.4598C48.5089 14.0598 48.0222 14.5598 47.5022 14.9598C46.9822 15.3598 46.3955 15.5598 45.7422 15.5598C45.2489 15.5598 44.8955 15.4398 44.6822 15.1998C44.4689 14.9465 44.3622 14.6332 44.3622 14.2598C44.3622 13.8998 44.4355 13.4865 44.5822 13.0198H44.4822C43.9889 13.8732 43.4555 14.5065 42.8822 14.9198C42.3222 15.3332 41.7489 15.5398 41.1622 15.5398ZM45.8022 7.45982C45.5222 7.20649 45.2289 7.00649 44.9222 6.85982C44.6155 6.69982 44.3022 6.61982 43.9822 6.61982C43.4889 6.61982 43.0489 6.79982 42.6622 7.15982C42.2755 7.51982 41.9489 7.98649 41.6822 8.55982C41.4155 9.11982 41.2155 9.72649 41.0822 10.3798C40.9489 11.0198 40.8822 11.6332 40.8822 12.2198C40.8822 13.0198 40.9889 13.5665 41.2022 13.8598C41.4155 14.1398 41.6689 14.2798 41.9622 14.2798C42.3089 14.2798 42.6889 14.1132 43.1022 13.7798C43.5289 13.4332 43.9422 12.8865 44.3422 12.1398C44.7555 11.3798 45.1089 10.3798 45.4022 9.13982L45.8022 7.45982ZM52.1378 15.3198H50.1378L51.7778 8.21982C51.8711 7.83316 51.9178 7.57982 51.9178 7.45982C51.9178 7.13982 51.7978 6.97982 51.5578 6.97982C51.3711 6.97982 51.1245 7.08649 50.8178 7.29982C50.5245 7.49982 50.2311 7.75316 49.9378 8.05982C49.8445 7.99316 49.7578 7.92649 49.6778 7.85982C49.6111 7.79316 49.5445 7.71982 49.4778 7.63982C50.0111 7.01316 50.5645 6.54649 51.1378 6.23982C51.7111 5.91982 52.2445 5.75982 52.7378 5.75982C53.1778 5.75982 53.4711 5.86649 53.6178 6.07982C53.7645 6.27982 53.8378 6.51982 53.8378 6.79982C53.8378 6.97316 53.8111 7.17982 53.7578 7.41982C53.7045 7.64649 53.5978 8.03316 53.4378 8.57982L52.7978 10.6398L52.9178 10.6598C53.6111 8.99316 54.2911 7.75316 54.9578 6.93982C55.6245 6.12649 56.3445 5.71982 57.1178 5.71982C57.5845 5.71982 57.9111 5.83982 58.0978 6.07982C58.2978 6.31982 58.3978 6.57982 58.3978 6.85982C58.3978 7.19316 58.2911 7.45316 58.0778 7.63982C57.8645 7.82649 57.6111 7.91982 57.3178 7.91982C57.1045 7.91982 56.8778 7.86649 56.6378 7.75982C56.3978 7.63982 56.1978 7.45316 56.0378 7.19982C55.6245 7.46649 55.1778 7.95316 54.6978 8.65982C54.2178 9.35316 53.7511 10.2598 53.2978 11.3798C52.8578 12.4865 52.4711 13.7998 52.1378 15.3198ZM63.8852 12.9798H63.7852C63.1585 13.9532 62.5318 14.6265 61.9052 14.9998C61.2785 15.3598 60.7052 15.5398 60.1852 15.5398C59.5452 15.5398 58.9785 15.2865 58.4852 14.7798C58.0052 14.2732 57.7652 13.4732 57.7652 12.3798C57.7652 11.5132 57.9252 10.6798 58.2452 9.87982C58.5785 9.07982 59.0185 8.36649 59.5652 7.73982C60.1252 7.11316 60.7452 6.61982 61.4252 6.25982C62.1052 5.89982 62.7918 5.71982 63.4852 5.71982C63.7518 5.71982 64.0252 5.75316 64.3052 5.81982C64.5985 5.87316 64.8852 5.96649 65.1652 6.09982L65.8052 2.97982C65.8452 2.79316 65.8785 2.61982 65.9052 2.45982C65.9318 2.29982 65.9452 2.17316 65.9452 2.07982C65.9452 1.82649 65.8252 1.67316 65.5852 1.61982C65.3585 1.55316 64.9252 1.51316 64.2852 1.49982C64.2718 1.40649 64.2585 1.31982 64.2452 1.23982C64.2452 1.14649 64.2518 1.05316 64.2652 0.959823C64.9852 0.90649 65.6852 0.833157 66.3652 0.739824C67.0585 0.633157 67.6518 0.479823 68.1452 0.279824L68.4052 0.419823C68.2718 0.913157 68.1318 1.45316 67.9852 2.03982C67.8518 2.62649 67.7118 3.28649 67.5652 4.01982L65.7052 13.0998C65.6918 13.1932 65.6652 13.3198 65.6252 13.4798C65.5985 13.6265 65.5852 13.7598 65.5852 13.8798C65.5852 14.1732 65.7052 14.3198 65.9452 14.3198C66.1718 14.3198 66.4585 14.1998 66.8052 13.9598C67.1518 13.7198 67.4652 13.4265 67.7452 13.0798C67.9185 13.1998 68.0718 13.3332 68.2052 13.4798C67.7518 14.0798 67.2585 14.5798 66.7252 14.9798C66.2052 15.3798 65.6252 15.5798 64.9852 15.5798C64.5052 15.5798 64.1652 15.4665 63.9652 15.2398C63.7652 14.9998 63.6652 14.6865 63.6652 14.2998C63.6652 14.1132 63.6852 13.9198 63.7252 13.7198C63.7652 13.5198 63.8185 13.2732 63.8852 12.9798ZM64.2852 10.3398L64.8652 7.47982C64.4785 7.14649 64.1185 6.91982 63.7852 6.79982C63.4652 6.67982 63.1918 6.61982 62.9652 6.61982C62.4718 6.61982 62.0318 6.79982 61.6452 7.15982C61.2585 7.51982 60.9385 7.98649 60.6852 8.55982C60.4318 9.11982 60.2385 9.72649 60.1052 10.3798C59.9718 11.0332 59.9052 11.6532 59.9052 12.2398C59.9052 12.9998 60.0052 13.5332 60.2052 13.8398C60.4185 14.1332 60.6985 14.2798 61.0452 14.2798C61.4852 14.2798 61.9252 14.0932 62.3652 13.7198C62.8052 13.3465 63.1985 12.8598 63.5452 12.2598C63.8918 11.6598 64.1385 11.0198 64.2852 10.3398Z" fill="white"/>
</svg>
