<svg width="17" height="17" viewBox="0 0 17 17" fill="none" xmlns="http://www.w3.org/2000/svg">
<path d="M14.2612 8.83301C14.2612 12.1467 11.5749 14.833 8.26123 14.833C7.46313 14.833 6.70143 14.6772 6.00489 14.3943C5.87158 14.3402 5.80493 14.3131 5.75104 14.301C5.69834 14.2892 5.65933 14.2849 5.60532 14.2849C5.5501 14.2849 5.48995 14.2949 5.36966 14.3149L2.99774 14.7103C2.74935 14.7517 2.62516 14.7724 2.53535 14.7338C2.45675 14.7001 2.39412 14.6375 2.3604 14.5589C2.32189 14.4691 2.34258 14.3449 2.38398 14.0965L2.7793 11.7246C2.79935 11.6043 2.80938 11.5441 2.80937 11.4889C2.80936 11.4349 2.80504 11.3959 2.79323 11.3432C2.78115 11.2893 2.75408 11.2227 2.69994 11.0893C2.41705 10.3928 2.26123 9.6311 2.26123 8.83301C2.26123 5.5193 4.94752 2.83301 8.26123 2.83301C11.5749 2.83301 14.2612 5.5193 14.2612 8.83301Z" stroke="#939494" stroke-linecap="round" stroke-linejoin="round"/>
</svg>
