<svg width="22" height="23" viewBox="0 0 22 23" fill="none" xmlns="http://www.w3.org/2000/svg">
<path d="M10.1064 3.48802H5.90645C4.22629 3.48802 3.38621 3.48802 2.74447 3.815C2.17999 4.10262 1.72105 4.56156 1.43343 5.12605C1.10645 5.76778 1.10645 6.60786 1.10645 8.28802V16.688C1.10645 18.3682 1.10645 19.2083 1.43343 19.85C1.72105 20.4145 2.17999 20.8734 2.74447 21.161C3.38621 21.488 4.22629 21.488 5.90645 21.488H14.3064C15.9866 21.488 16.8267 21.488 17.4684 21.161C18.0329 20.8734 18.4918 20.4145 18.7795 19.85C19.1064 19.2083 19.1064 18.3682 19.1064 16.688V12.488M7.10642 15.488H8.78096C9.27014 15.488 9.51473 15.488 9.74491 15.4328C9.94898 15.3838 10.1441 15.303 10.323 15.1933C10.5248 15.0696 10.6978 14.8967 11.0437 14.5508L20.6064 4.98802C21.4349 4.15959 21.4349 2.81645 20.6064 1.98802C19.778 1.15959 18.4349 1.15959 17.6064 1.98802L8.04368 11.5508C7.69778 11.8967 7.52482 12.0696 7.40114 12.2715C7.29148 12.4504 7.21067 12.6455 7.16168 12.8496C7.10642 13.0797 7.10642 13.3243 7.10642 13.8135V15.488Z" stroke="#BBC2C0" stroke-width="1.5" stroke-linecap="round" stroke-linejoin="round"/>
</svg>
