<svg width="21" height="22" viewBox="0 0 21 22" fill="none" xmlns="http://www.w3.org/2000/svg">
<path d="M6.10645 16.488H14.1064M9.12414 2.25204L2.34184 7.52716C1.88847 7.87978 1.66178 8.05609 1.49847 8.27689C1.35381 8.47248 1.24605 8.69282 1.18047 8.92709C1.10645 9.19156 1.10645 9.47873 1.10645 10.0531V17.288C1.10645 18.4081 1.10645 18.9682 1.32443 19.396C1.51618 19.7723 1.82214 20.0783 2.19846 20.27C2.62629 20.488 3.18634 20.488 4.30645 20.488H15.9064C17.0266 20.488 17.5866 20.488 18.0144 20.27C18.3908 20.0783 18.6967 19.7723 18.8885 19.396C19.1064 18.9682 19.1064 18.4081 19.1064 17.288V10.0531C19.1064 9.47873 19.1064 9.19156 19.0324 8.92709C18.9668 8.69282 18.8591 8.47248 18.7144 8.27689C18.5511 8.05609 18.3244 7.87978 17.8711 7.52716L11.0888 2.25204C10.7374 1.97878 10.5618 1.84216 10.3678 1.78964C10.1966 1.7433 10.0162 1.7433 9.8451 1.78964C9.65113 1.84216 9.47547 1.97878 9.12414 2.25204Z" stroke="#D8E9E4" stroke-width="2" stroke-linecap="round" stroke-linejoin="round"/>
</svg>
