<svg width="23" height="23" viewBox="0 0 23 23" fill="none" xmlns="http://www.w3.org/2000/svg">
<path d="M10.627 3.26123H6.42695C4.7468 3.26123 3.90672 3.26123 3.26498 3.58821C2.7005 3.87583 2.24155 4.33477 1.95393 4.89926C1.62695 5.54099 1.62695 6.38107 1.62695 8.06123V16.4612C1.62695 18.1414 1.62695 18.9815 1.95393 19.6232C2.24155 20.1877 2.7005 20.6466 3.26498 20.9342C3.90672 21.2612 4.7468 21.2612 6.42695 21.2612H14.827C16.5071 21.2612 17.3472 21.2612 17.9889 20.9342C18.5534 20.6466 19.0124 20.1877 19.3 19.6232C19.627 18.9815 19.627 18.1414 19.627 16.4612V12.2612M7.62693 15.2612H9.30147C9.79065 15.2612 10.0352 15.2612 10.2654 15.206C10.4695 15.157 10.6646 15.0762 10.8435 14.9665C11.0454 14.8428 11.2183 14.6699 11.5642 14.324L21.127 4.76123C21.9554 3.9328 21.9554 2.58966 21.127 1.76123C20.2985 0.932802 18.9554 0.932801 18.127 1.76123L8.56419 11.324C8.21828 11.6699 8.04533 11.8428 7.92165 12.0447C7.81199 12.2236 7.73118 12.4187 7.68219 12.6228C7.62693 12.8529 7.62693 13.0975 7.62693 13.5867V15.2612Z" stroke="#243831" stroke-width="1.5" stroke-linecap="round" stroke-linejoin="round"/>
</svg>
