<svg width="25" height="25" viewBox="0 0 25 25" fill="none" xmlns="http://www.w3.org/2000/svg">
<path d="M8.62695 17.2612H16.627M11.6446 3.02524L4.86234 8.30037C4.40897 8.65299 4.18229 8.8293 4.01898 9.0501C3.87432 9.24569 3.76655 9.46603 3.70098 9.7003C3.62695 9.96476 3.62695 10.2519 3.62695 10.8263V18.0612C3.62695 19.1813 3.62695 19.7414 3.84494 20.1692C4.03669 20.5455 4.34265 20.8515 4.71897 21.0432C5.1468 21.2612 5.70685 21.2612 6.82695 21.2612H18.427C19.5471 21.2612 20.1071 21.2612 20.5349 21.0432C20.9113 20.8515 21.2172 20.5455 21.409 20.1692C21.627 19.7414 21.627 19.1813 21.627 18.0612V10.8263C21.627 10.2519 21.627 9.96476 21.5529 9.7003C21.4874 9.46603 21.3796 9.24569 21.2349 9.0501C21.0716 8.8293 20.8449 8.65299 20.3916 8.30037L13.6093 3.02524C13.2579 2.75199 13.0823 2.61537 12.8883 2.56285C12.7171 2.51651 12.5368 2.51651 12.3656 2.56285C12.1716 2.61537 11.996 2.75199 11.6446 3.02524Z" stroke="#243831" stroke-width="1.5" stroke-linecap="round" stroke-linejoin="round"/>
</svg>
